<?xml version="1.0" encoding="UTF-8"?>
<svg id="Layer_2" data-name="Layer 2" xmlns="http://www.w3.org/2000/svg" viewBox="0 0 230.31 85.78">
  <defs>
    <style>
      .cls-1 {
        stroke: #2546f0;
      }

      .cls-1, .cls-2 {
        stroke-linecap: round;
        stroke-linejoin: round;
        stroke-width: 2px;
      }

      .cls-1, .cls-3 {
        fill: #2546f0;
      }

      .cls-2 {
        fill: #fff;
        stroke: #000;
      }

      .cls-4, .cls-3 {
        stroke-width: 0px;
      }
    </style>
  </defs>
  <g id="Layer_1-2" data-name="Layer 1">
    <g>
      <g>
        <path class="cls-4" d="m84.72,0c3.17,0,5.49.62,6.94,1.87,1.45,1.25,2.18,3,2.18,5.27,0,1.34-.3,2.59-.9,3.76s-1.61,2.11-3.03,2.84c-1.42.73-3.34,1.09-5.76,1.09h-2.79v9.45h-3.06V0h6.43Zm-.27,2.62h-3.09v9.59h2.45c2.31,0,4.03-.37,5.17-1.12,1.13-.75,1.7-2.02,1.7-3.81,0-1.56-.5-2.73-1.51-3.5-1.01-.77-2.58-1.16-4.71-1.16Z"/>
        <path class="cls-4" d="m106.96,5.71c.34,0,.7.02,1.09.05.38.03.74.08,1.05.15l-.37,2.75c-.29-.07-.62-.12-.99-.17s-.69-.07-.99-.07c-.93,0-1.8.26-2.62.77-.82.51-1.47,1.22-1.96,2.14s-.73,1.99-.73,3.21v9.72h-2.99V6.05h2.45l.34,3.33h.14c.57-1,1.32-1.86,2.26-2.58.94-.73,2.04-1.09,3.32-1.09Z"/>
        <path class="cls-4" d="m127.67,15.13c0,3.01-.76,5.35-2.29,7-1.53,1.65-3.6,2.48-6.21,2.48-1.61,0-3.04-.37-4.3-1.1-1.26-.74-2.25-1.81-2.98-3.23-.73-1.42-1.09-3.13-1.09-5.15,0-3.01.75-5.34,2.26-6.97,1.51-1.63,3.58-2.45,6.21-2.45,1.63,0,3.08.37,4.35,1.1,1.27.74,2.26,1.8,2.97,3.2s1.07,3.1,1.07,5.12Zm-13.77,0c0,2.15.43,3.86,1.28,5.12.85,1.26,2.2,1.89,4.06,1.89s3.18-.63,4.05-1.89c.86-1.26,1.29-2.96,1.29-5.12s-.43-3.84-1.29-5.07c-.86-1.22-2.22-1.84-4.08-1.84s-3.21.61-4.05,1.84c-.84,1.22-1.26,2.91-1.26,5.07Z"/>
        <path class="cls-4" d="m138.48,22.17c.45,0,.92-.03,1.39-.1.48-.07.86-.16,1.16-.27v2.28c-.32.16-.77.29-1.36.39-.59.1-1.16.15-1.7.15-.95,0-1.83-.16-2.63-.49-.8-.33-1.46-.9-1.96-1.72-.5-.82-.75-1.96-.75-3.43v-10.61h-2.58v-1.43l2.62-1.19,1.19-3.88h1.77v4.18h5.27v2.31h-5.27v10.54c0,1.11.27,1.93.8,2.46.53.53,1.22.8,2.06.8Z"/>
        <path class="cls-4" d="m160.51,15.13c0,3.01-.76,5.35-2.29,7-1.53,1.65-3.6,2.48-6.21,2.48-1.61,0-3.04-.37-4.3-1.1-1.26-.74-2.25-1.81-2.97-3.23-.73-1.42-1.09-3.13-1.09-5.15,0-3.01.75-5.34,2.26-6.97,1.51-1.63,3.58-2.45,6.21-2.45,1.63,0,3.08.37,4.35,1.1,1.27.74,2.26,1.8,2.98,3.2s1.07,3.1,1.07,5.12Zm-13.77,0c0,2.15.42,3.86,1.27,5.12.85,1.26,2.21,1.89,4.06,1.89s3.18-.63,4.05-1.89c.86-1.26,1.29-2.96,1.29-5.12s-.43-3.84-1.29-5.07-2.22-1.84-4.08-1.84-3.21.61-4.05,1.84-1.26,2.91-1.26,5.07Z"/>
        <path class="cls-4" d="m171.32,22.17c.45,0,.92-.03,1.39-.1.48-.07.86-.16,1.16-.27v2.28c-.32.16-.77.29-1.36.39-.59.1-1.16.15-1.7.15-.95,0-1.83-.16-2.63-.49-.8-.33-1.46-.9-1.96-1.72-.5-.82-.75-1.96-.75-3.43v-10.61h-2.58v-1.43l2.62-1.19,1.19-3.88h1.77v4.18h5.27v2.31h-5.27v10.54c0,1.11.27,1.93.8,2.46.53.53,1.22.8,2.06.8Z"/>
        <path class="cls-4" d="m174.65,6.05h3.2l3.94,10.37c.34.93.65,1.8.92,2.62.27.82.48,1.6.61,2.35h.14c.14-.57.35-1.31.65-2.23s.6-1.84.92-2.77l3.71-10.34h3.23l-7.85,20.74c-.66,1.72-1.48,3.09-2.48,4.11-1,1.02-2.38,1.53-4.15,1.53-.54,0-1.02-.03-1.43-.08-.41-.06-.76-.12-1.05-.19v-2.38c.25.05.55.09.9.14.35.04.72.07,1.11.07,1.04,0,1.88-.29,2.52-.88.63-.59,1.14-1.37,1.53-2.35l.95-2.41-7.34-18.29Z"/>
        <path class="cls-4" d="m203.52,5.71c2.24,0,4.05.78,5.42,2.35,1.37,1.56,2.06,3.92,2.06,7.07s-.69,5.46-2.06,7.07c-1.37,1.61-3.19,2.41-5.46,2.41-1.41,0-2.57-.26-3.48-.78-.92-.52-1.64-1.14-2.16-1.87h-.2c.02.39.06.87.12,1.46.06.59.08,1.1.08,1.53v7.48h-2.99V6.05h2.45l.41,2.48h.14c.54-.79,1.26-1.46,2.14-2.01.88-.54,2.06-.82,3.54-.82Zm-.54,2.52c-1.86,0-3.17.52-3.94,1.56-.77,1.04-1.17,2.63-1.19,4.76v.58c0,2.24.37,3.97,1.1,5.19.74,1.21,2.1,1.82,4.1,1.82,1.09,0,1.99-.3,2.72-.9s1.26-1.43,1.62-2.5c.35-1.06.53-2.28.53-3.64,0-2.08-.4-3.75-1.21-5-.8-1.25-2.04-1.87-3.72-1.87Z"/>
        <path class="cls-4" d="m222.8,5.71c1.54,0,2.88.34,4.01,1.02,1.13.68,2,1.64,2.6,2.87s.9,2.68.9,4.33v1.8h-12.48c.05,2.06.57,3.63,1.58,4.71,1.01,1.08,2.42,1.62,4.23,1.62,1.16,0,2.18-.11,3.08-.32.89-.21,1.82-.53,2.77-.93v2.62c-.93.41-1.85.71-2.75.9-.91.19-1.98.29-3.23.29-1.75,0-3.28-.35-4.59-1.05s-2.34-1.75-3.08-3.13c-.74-1.38-1.11-3.09-1.11-5.13s.33-3.71,1-5.13c.67-1.43,1.61-2.53,2.82-3.3,1.21-.77,2.62-1.16,4.23-1.16Zm-.03,2.45c-1.43,0-2.56.46-3.38,1.38-.83.92-1.32,2.19-1.48,3.82h9.28c-.02-1.54-.39-2.79-1.09-3.76-.7-.96-1.81-1.45-3.33-1.45Z"/>
        <path class="cls-3" d="m84.72,40.8c3.17,0,5.49.62,6.94,1.87,1.45,1.25,2.18,3,2.18,5.27,0,1.34-.3,2.59-.9,3.76s-1.61,2.11-3.03,2.84c-1.42.73-3.34,1.09-5.76,1.09h-2.79v9.45h-3.06v-24.28h6.43Zm-.27,2.62h-3.09v9.59h2.45c2.31,0,4.03-.37,5.17-1.12,1.13-.75,1.7-2.02,1.7-3.81,0-1.56-.5-2.73-1.51-3.5-1.01-.77-2.58-1.16-4.71-1.16Z"/>
        <path class="cls-3" d="m105.36,46.55c2.22,0,3.86.49,4.93,1.46,1.06.97,1.6,2.53,1.6,4.66v12.41h-2.18l-.58-2.58h-.14c-.79,1-1.63,1.73-2.52,2.21s-2.09.71-3.6.71c-1.66,0-3.03-.44-4.11-1.31-1.09-.87-1.63-2.24-1.63-4.1s.71-3.21,2.14-4.2c1.43-.99,3.63-1.52,6.6-1.61l3.09-.1v-1.09c0-1.52-.33-2.57-.99-3.16-.66-.59-1.59-.88-2.79-.88-.95,0-1.86.14-2.72.43-.86.28-1.67.61-2.41.97l-.92-2.24c.79-.43,1.73-.8,2.82-1.1,1.09-.31,2.22-.46,3.4-.46Zm3.57,9.62l-2.69.1c-2.27.09-3.84.45-4.71,1.09-.87.63-1.31,1.53-1.31,2.69,0,1.02.31,1.77.93,2.24.62.48,1.42.71,2.4.71,1.52,0,2.79-.42,3.83-1.27,1.03-.85,1.55-2.16,1.55-3.93v-1.63Z"/>
        <path class="cls-3" d="m123.62,62.97c.45,0,.92-.03,1.39-.1.48-.07.86-.16,1.16-.27v2.28c-.32.16-.77.29-1.36.39-.59.1-1.16.15-1.7.15-.95,0-1.83-.16-2.63-.49-.8-.33-1.46-.9-1.96-1.72-.5-.82-.75-1.96-.75-3.43v-10.61h-2.58v-1.43l2.62-1.19,1.19-3.88h1.77v4.18h5.27v2.31h-5.27v10.54c0,1.11.27,1.93.8,2.46.53.53,1.22.8,2.06.8Z"/>
        <path class="cls-3" d="m132.8,39.24v7.58c0,.91-.06,1.76-.17,2.55h.2c.59-.93,1.39-1.63,2.4-2.11s2.1-.71,3.28-.71c2.2,0,3.86.53,4.98,1.58,1.12,1.05,1.68,2.75,1.68,5.08v11.87h-2.96v-11.66c0-2.92-1.36-4.39-4.08-4.39-2.04,0-3.44.57-4.2,1.72-.76,1.15-1.14,2.78-1.14,4.91v9.42h-2.99v-25.84h2.99Z"/>
        <path class="cls-3" d="m165.71,65.04l-3.13-10.27c-.29-.93-.56-1.84-.78-2.72s-.39-1.59-.48-2.11h-.14c-.09.52-.24,1.22-.44,2.11s-.46,1.8-.78,2.75l-3.26,10.23h-3.4l-5-18.22h3.09l2.52,9.72c.25.98.49,1.96.71,2.96.23,1,.38,1.83.48,2.48h.14c.07-.38.17-.86.31-1.43.14-.57.28-1.16.44-1.79.16-.62.32-1.18.48-1.68l3.23-10.27h3.26l3.13,10.27c.23.79.46,1.64.71,2.55.25.91.42,1.68.51,2.31h.14c.07-.57.22-1.35.46-2.35.24-1,.49-2.02.76-3.06l2.55-9.72h3.06l-5.07,18.22h-3.5Z"/>
        <path class="cls-3" d="m184.44,46.55c2.22,0,3.86.49,4.93,1.46,1.06.97,1.6,2.53,1.6,4.66v12.41h-2.18l-.58-2.58h-.14c-.79,1-1.63,1.73-2.52,2.21s-2.09.71-3.6.71c-1.66,0-3.03-.44-4.11-1.31-1.09-.87-1.63-2.24-1.63-4.1s.71-3.21,2.14-4.2c1.43-.99,3.63-1.52,6.6-1.61l3.09-.1v-1.09c0-1.52-.33-2.57-.99-3.16-.66-.59-1.59-.88-2.79-.88-.95,0-1.86.14-2.72.43-.86.28-1.67.61-2.41.97l-.92-2.24c.79-.43,1.73-.8,2.82-1.1,1.09-.31,2.22-.46,3.4-.46Zm3.57,9.62l-2.69.1c-2.27.09-3.84.45-4.71,1.09-.87.63-1.31,1.53-1.31,2.69,0,1.02.31,1.77.93,2.24.62.48,1.42.71,2.4.71,1.52,0,2.79-.42,3.83-1.27,1.03-.85,1.55-2.16,1.55-3.93v-1.63Z"/>
        <path class="cls-3" d="m193.76,46.85h3.2l3.94,10.37c.34.93.65,1.8.92,2.62.27.82.48,1.6.61,2.35h.14c.14-.57.35-1.31.65-2.23s.6-1.84.92-2.77l3.71-10.34h3.23l-7.85,20.74c-.66,1.72-1.48,3.09-2.48,4.11-1,1.02-2.38,1.53-4.15,1.53-.54,0-1.02-.03-1.43-.08-.41-.06-.76-.12-1.05-.19v-2.38c.25.05.55.09.9.14.35.04.72.07,1.11.07,1.04,0,1.88-.29,2.52-.88.63-.59,1.14-1.37,1.53-2.35l.95-2.41-7.34-18.29Z"/>
      </g>
      <line class="cls-2" x1="78.25" y1="84.78" x2="133.85" y2="84.78"/>
      <g>
        <path class="cls-2" d="m13.61,13.73h47.77s0,25.09,0,25.09c0,4.22-3.42,7.64-7.64,7.64H13.44s.02.03.02.03l.15-32.76Z"/>
        <path class="cls-2" d="m53.74,3.35c4.22,0,7.64,3.42,7.64,7.64v28.35c0-4.22-3.42-7.64-7.64-7.64V3.35Z"/>
      </g>
      <g>
        <circle class="cls-2" cx="14.75" cy="15.08" r="5.13"/>
        <path class="cls-2" d="m20.39,5.34c-.8-.45-1.63-.8-2.5-1.04-.16-1.01-.46-2.94-.47-2.97-1.7-.01-3.4-.03-5.1-.04-.01.06-.38,2.03-.55,3-.85.24-1.68.58-2.47,1.03-.8-.57-1.61-1.14-2.41-1.71-.01,0-.03-.02-.04-.02-1.2,1.2-2.39,2.39-3.59,3.59.11.16,1.43,2,1.74,2.44-.45.81-.8,1.66-1.04,2.53-.97.17-1.93.34-2.91.5-.01,1.7-.03,3.4-.04,5.11.04,0,.07.01.1.02.95.15,1.91.3,2.87.45.25.87.6,1.72,1.06,2.52-.31.46-1.49,2.06-1.74,2.39-.01.02-.03.04-.04.06,1.2,1.2,2.4,2.4,3.6,3.6.12-.09,2.1-1.49,2.53-1.77.76.42,1.55.74,2.36.97.11.42.42,2.13.57,3.01,0,.02,0,.04.01.06,1.69,0,3.37,0,5.07,0,0-.02.35-2.07.52-3.07,0,0,0,0,0,0,.85-.24,1.68-.59,2.47-1.04.04.01.07.03.11.06.76.55,1.53,1.09,2.3,1.63.01,0,.02.02.04.03,1.2-1.2,2.41-2.41,3.61-3.61-.59-.82-1.17-1.64-1.76-2.46.44-.79.77-1.62,1.01-2.47,1-.17,2-.34,2.99-.5.02,0,.04,0,.06-.01,0-1.69,0-3.37,0-5.06-.01,0-2.06-.35-3.06-.52,0,0-.01,0-.02,0-.24-.83-.57-1.64-1-2.41,0-.03.02-.05.04-.08.28-.36,1.41-1.91,1.71-2.32.01-.02.03-.04.05-.05-1.2-1.2-2.4-2.4-3.6-3.6-.16.12-2.01,1.43-2.47,1.76Zm-2,13.37c-2,2-5.26,2-7.26,0-2-2-2-5.26,0-7.26,2-2,5.26-2,7.26,0,2,2,2,5.26,0,7.26Z"/>
      </g>
      <g>
        <g>
          <polygon class="cls-2" points="26.26 61.49 20.6 57.77 26.26 54.38 56.95 54.37 56.95 61.48 26.26 61.49"/>
          <polygon class="cls-1" points="52.31 54.38 56.95 54.37 56.95 61.48 52.31 61.49 52.31 54.38"/>
        </g>
        <polygon class="cls-2" points="26.26 54.38 26.26 61.49 20.6 57.77 26.26 54.38"/>
      </g>
      <g>
        <path class="cls-2" d="m35.77,26.29h6.45c3.19,0,5.77,2.59,5.77,5.77h0c0,3.19-2.59,5.77-5.77,5.77h-16.64"/>
        <rect class="cls-1" x="23.41" y="35.68" width="4.32" height="4.32" rx="2.16" ry="2.16"/>
        <rect class="cls-1" x="38.72" y="35.68" width="4.32" height="4.32" rx="2.16" ry="2.16"/>
        <rect class="cls-1" x="32.62" y="24.13" width="4.32" height="4.32" rx="2.16" ry="2.16"/>
      </g>
    </g>
  </g>
</svg>